<svg xmlns="http://www.w3.org/2000/svg" viewBox="0 0 118.29 90.56" width="473" height="362"><rect width="100%" height="100%" fill="white"/><polyline points="5.000,85.564 9.708,85.564 14.417,85.564 19.125,85.564 23.833,85.564 28.541,85.564 33.250,85.564 37.958,85.564 42.666,85.564 47.375,85.564 52.083,85.564 56.791,85.564 61.500,85.564 66.208,85.564 70.916,85.564 75.624,85.564 80.333,85.564 85.041,85.564 89.749,85.564 94.458,85.564 99.166,85.564 103.874,85.564 108.582,85.564 113.291,85.564" fill="none" stroke="#8a8984" stroke-width="0.25"/><polyline points="113.291,85.564 113.286,85.543 113.282,85.521 113.277,85.500 113.273,85.479 113.269,85.458 113.264,85.437 113.260,85.416 113.255,85.395 113.251,85.374 113.246,85.353 113.242,85.332 113.237,85.311 113.233,85.290 113.228,85.268 113.224,85.247 113.220,85.226 113.215,85.205 113.211,85.184 113.206,85.163 113.202,85.142 113.197,85.121 113.193,85.100 113.188,85.079" fill="none" stroke="#8a8984" stroke-width="0.25"/><polyline points="113.188,85.079 112.454,81.597 111.719,78.115 110.984,74.634 110.250,71.152 109.515,67.670 108.780,64.189 108.046,60.707 107.311,57.225 106.576,53.744 105.842,50.262 105.107,46.780 104.372,43.299 103.638,39.817 102.903,36.335 102.168,32.853 101.434,29.372 100.699,25.890 99.964,22.408 99.229,18.927 98.495,15.445 97.760,11.963 97.025,8.482 96.291,5.000" fill="none" stroke="#8a8984" stroke-width="0.25"/><polyline points="96.291,5.000 93.061,5.000 89.831,5.000 86.601,5.000 83.371,5.000 80.141,5.000 76.911,5.000 73.681,5.000 70.451,5.000 67.220,5.000 63.990,5.000 60.760,5.000 57.530,5.000 54.300,5.000 51.070,5.000 47.840,5.000 44.610,5.000 41.380,5.000 38.150,5.000 34.920,5.000 31.690,5.000 28.460,5.000 25.230,5.000 22.000,5.000" fill="none" stroke="#8a8984" stroke-width="0.25"/><polyline points="22.000,5.000 21.265,8.482 20.531,11.963 19.796,15.445 19.061,18.927 18.327,22.408 17.592,25.890 16.857,29.372 16.123,32.853 15.388,36.335 14.653,39.817 13.918,43.299 13.184,46.780 12.449,50.262 11.714,53.744 10.980,57.225 10.245,60.707 9.510,64.189 8.776,67.670 8.041,71.152 7.306,74.634 6.572,78.115 5.837,81.597 5.102,85.079" fill="none" stroke="#8a8984" stroke-width="0.25"/><polyline points="5.102,85.079 5.098,85.100 5.093,85.121 5.089,85.142 5.085,85.163 5.080,85.184 5.076,85.205 5.071,85.226 5.067,85.247 5.062,85.268 5.058,85.290 5.053,85.311 5.049,85.332 5.044,85.353 5.040,85.374 5.036,85.395 5.031,85.416 5.027,85.437 5.022,85.458 5.018,85.479 5.013,85.500 5.009,85.521 5.004,85.543 5.000,85.564" fill="none" stroke="#d62f2f" stroke-width="0.6"/><circle cx="5.051" cy="85.321" r="2.5" fill="none" stroke="#d62f2f" stroke-width="0.4"/><text x="1" y="89.6" font-size="3" font-family="sans-serif">skirt_front: mide 0.50 cm, por debajo del minimo de 0.5 cm</text></svg>