<svg xmlns="http://www.w3.org/2000/svg" viewBox="0 0 117.37 90.72" width="469" height="363"><rect width="100%" height="100%" fill="white"/><polyline points="28.838,83.346 28.540,83.347 28.243,83.348 27.945,83.350 27.648,83.352 27.351,83.355 27.053,83.359 26.756,83.364 26.459,83.370 26.161,83.376 25.864,83.383 25.567,83.390 25.270,83.399 24.973,83.408 24.676,83.418 24.379,83.428 24.082,83.440 23.785,83.452 23.488,83.465 23.191,83.478 22.894,83.492 22.597,83.507 22.301,83.523 22.004,83.539" fill="none" stroke="#8a8984" stroke-width="0.25"/><polyline points="22.004,83.539 21.932,83.023 21.860,82.506 21.788,81.989 21.716,81.472 21.645,80.955 21.573,80.438 21.501,79.921 21.429,79.404 21.357,78.887 21.285,78.370 21.213,77.853 21.142,77.336 21.070,76.819 20.998,76.302 20.926,75.785 20.854,75.268 20.782,74.751 20.710,74.234 20.639,73.718 20.567,73.201 20.495,72.684 20.423,72.167 20.351,71.650" fill="none" stroke="#8a8984" stroke-width="0.25"/><polyline points="20.351,71.650 20.346,72.172 20.340,72.694 20.335,73.215 20.330,73.737 20.324,74.259 20.319,74.781 20.314,75.303 20.308,75.825 20.303,76.347 20.298,76.869 20.292,77.391 20.287,77.912 20.282,78.434 20.276,78.956 20.271,79.478 20.266,80.000 20.260,80.522 20.255,81.044 20.250,81.566 20.244,82.088 20.239,82.609 20.234,83.131 20.228,83.653" fill="none" stroke="#8a8984" stroke-width="0.25"/><polyline points="20.228,83.653 20.031,83.667 19.833,83.682 19.636,83.697 19.438,83.712 19.241,83.728 19.043,83.744 18.846,83.760 18.648,83.776 18.451,83.793 18.253,83.811 18.056,83.828 17.859,83.846 17.661,83.864 17.464,83.883 17.267,83.901 17.069,83.921 16.872,83.940 16.675,83.960 16.477,83.980 16.280,84.000 16.083,84.021 15.886,84.042 15.689,84.064" fill="none" stroke="#8a8984" stroke-width="0.25"/><polyline points="15.689,84.064 15.596,83.603 15.503,83.143 15.410,82.682 15.318,82.222 15.225,81.761 15.132,81.301 15.039,80.840 14.947,80.380 14.854,79.919 14.761,79.459 14.668,78.998 14.576,78.538 14.483,78.077 14.390,77.617 14.297,77.157 14.205,76.696 14.112,76.236 14.019,75.775 13.926,75.315 13.834,74.854 13.741,74.394 13.648,73.933 13.555,73.473" fill="none" stroke="#8a8984" stroke-width="0.25"/><polyline points="13.555,73.473 13.571,73.942 13.587,74.412 13.603,74.881 13.619,75.351 13.635,75.820 13.651,76.289 13.667,76.759 13.683,77.228 13.699,77.698 13.714,78.167 13.730,78.637 13.746,79.106 13.762,79.576 13.778,80.045 13.794,80.515 13.810,80.984 13.826,81.453 13.842,81.923 13.858,82.392 13.874,82.862 13.890,83.331 13.905,83.801 13.921,84.270" fill="none" stroke="#8a8984" stroke-width="0.25"/><polyline points="13.921,84.270 13.564,84.320 13.206,84.371 12.848,84.424 12.491,84.477 12.133,84.532 11.776,84.588 11.418,84.645 11.061,84.703 10.704,84.762 10.347,84.823 9.990,84.884 9.633,84.947 9.276,85.011 8.919,85.076 8.563,85.143 8.206,85.210 7.849,85.279 7.493,85.349 7.136,85.420 6.780,85.492 6.424,85.565 6.068,85.640 5.712,85.715" fill="none" stroke="#d62f2f" stroke-width="0.6"/><polyline points="5.712,85.715 5.681,85.096 5.650,84.477 5.619,83.859 5.588,83.240 5.557,82.621 5.526,82.002 5.495,81.383 5.464,80.764 5.433,80.145 5.402,79.527 5.371,78.908 5.340,78.289 5.309,77.670 5.278,77.051 5.248,76.432 5.217,75.813 5.186,75.194 5.155,74.576 5.124,73.957 5.093,73.338 5.062,72.719 5.031,72.100 5.000,71.481" fill="none" stroke="#8a8984" stroke-width="0.25"/><polyline points="5.000,71.481 5.000,71.281 5.000,71.080 5.000,70.880 5.000,70.679 5.000,70.478 5.000,70.278 5.000,70.077 5.000,69.877 5.000,69.676 5.000,69.475 5.000,69.275 5.000,69.074 5.000,68.874 5.000,68.673 5.000,68.473 5.000,68.272 5.000,68.071 5.000,67.871 5.000,67.670 5.000,67.470 5.000,67.269 5.000,67.068 5.000,66.868" fill="none" stroke="#8a8984" stroke-width="0.25"/><polyline points="5.000,66.868 6.036,66.442 7.073,66.017 8.109,65.591 9.146,65.165 10.182,64.740 11.219,64.314 12.255,63.888 13.291,63.463 14.328,63.037 15.364,62.611 16.401,62.186 17.437,61.760 18.474,61.335 19.510,60.909 20.547,60.483 21.583,60.058 22.619,59.632 23.656,59.206 24.692,58.781 25.729,58.355 26.765,57.929 27.802,57.504 28.838,57.078" fill="none" stroke="#8a8984" stroke-width="0.25"/><polyline points="28.838,57.078 28.838,58.220 28.838,59.362 28.838,60.504 28.838,61.647 28.838,62.789 28.838,63.931 28.838,65.073 28.838,66.215 28.838,67.357 28.838,68.499 28.838,69.641 28.838,70.783 28.838,71.925 28.838,73.067 28.838,74.210 28.838,75.352 28.838,76.494 28.838,77.636 28.838,78.778 28.838,79.920 28.838,81.062 28.838,82.204 28.838,83.346" fill="none" stroke="#8a8984" stroke-width="0.25"/><polyline points="38.838,83.715 38.841,83.698 38.845,83.680 38.848,83.663 38.851,83.646 38.855,83.628 38.858,83.611 38.861,83.594 38.864,83.576 38.868,83.559 38.871,83.542 38.874,83.524 38.878,83.507 38.881,83.490 38.884,83.472 38.888,83.455 38.891,83.438 38.894,83.420 38.898,83.403 38.901,83.386 38.904,83.368 38.907,83.351 38.911,83.334 38.914,83.316" fill="none" stroke="#8a8984" stroke-width="0.25"/><polyline points="38.914,83.316 39.563,79.911 40.212,76.506 40.861,73.101 41.510,69.696 42.158,66.291 42.807,62.886 43.456,59.481 44.105,56.076 44.754,52.671 45.403,49.266 46.052,45.861 46.700,42.456 47.349,39.051 47.998,35.646 48.647,32.240 49.296,28.835 49.945,25.430 50.594,22.025 51.243,18.620 51.891,15.215 52.540,11.810 53.189,8.405 53.838,5.000" fill="none" stroke="#8a8984" stroke-width="0.25"/><polyline points="53.838,5.000 54.240,5.000 54.641,5.000 55.043,5.000 55.445,5.000 55.846,5.000 56.248,5.000 56.649,5.000 57.051,5.000 57.453,5.000 57.854,5.000 58.256,5.000 58.657,5.000 59.059,5.000 59.461,5.000 59.862,5.000 60.264,5.000 60.666,5.000 61.067,5.000 61.469,5.000 61.870,5.000 62.272,5.000 62.674,5.000 63.075,5.000" fill="none" stroke="#d62f2f" stroke-width="0.6"/><polyline points="63.075,5.000 63.295,5.000 63.514,5.000 63.734,5.000 63.954,5.000 64.173,5.000 64.393,5.000 64.612,5.000 64.832,5.000 65.052,5.000 65.271,5.000 65.491,5.000 65.710,5.000 65.930,5.000 66.149,5.000 66.369,5.000 66.589,5.000 66.808,5.000 67.028,5.000 67.247,5.000 67.467,5.000 67.686,5.000 67.906,5.000 68.126,5.000" fill="none" stroke="#8a8984" stroke-width="0.25"/><polyline points="68.126,5.000 68.455,5.000 68.784,5.000 69.114,5.000 69.443,5.000 69.773,5.000 70.102,5.000 70.431,5.000 70.761,5.000 71.090,5.000 71.419,5.000 71.749,5.000 72.078,5.000 72.407,5.000 72.737,5.000 73.066,5.000 73.396,5.000 73.725,5.000 74.054,5.000 74.384,5.000 74.713,5.000 75.042,5.000 75.372,5.000 75.701,5.000" fill="none" stroke="#8a8984" stroke-width="0.25"/><polyline points="75.701,5.000 76.031,5.000 76.360,5.000 76.689,5.000 77.019,5.000 77.348,5.000 77.677,5.000 78.007,5.000 78.336,5.000 78.666,5.000 78.995,5.000 79.324,5.000 79.654,5.000 79.983,5.000 80.312,5.000 80.642,5.000 80.971,5.000 81.300,5.000 81.630,5.000 81.959,5.000 82.289,5.000 82.618,5.000 82.947,5.000 83.277,5.000" fill="none" stroke="#8a8984" stroke-width="0.25"/><polyline points="83.277,5.000 83.496,5.000 83.716,5.000 83.935,5.000 84.155,5.000 84.375,5.000 84.594,5.000 84.814,5.000 85.033,5.000 85.253,5.000 85.473,5.000 85.692,5.000 85.912,5.000 86.131,5.000 86.351,5.000 86.570,5.000 86.790,5.000 87.010,5.000 87.229,5.000 87.449,5.000 87.668,5.000 87.888,5.000 88.107,5.000 88.327,5.000" fill="none" stroke="#8a8984" stroke-width="0.25"/><polyline points="88.327,5.000 88.720,5.000 89.113,5.000 89.506,5.000 89.899,5.000 90.292,5.000 90.685,5.000 91.078,5.000 91.471,5.000 91.864,5.000 92.257,5.000 92.650,5.000 93.044,5.000 93.437,5.000 93.830,5.000 94.223,5.000 94.616,5.000 95.009,5.000 95.402,5.000 95.795,5.000 96.188,5.000 96.581,5.000 96.974,5.000 97.367,5.000" fill="none" stroke="#8a8984" stroke-width="0.25"/><polyline points="97.367,5.000 98.016,8.405 98.665,11.810 99.314,15.215 99.962,18.620 100.611,22.025 101.260,25.430 101.909,28.835 102.558,32.240 103.207,35.646 103.856,39.051 104.505,42.456 105.153,45.861 105.802,49.266 106.451,52.671 107.100,56.076 107.749,59.481 108.398,62.886 109.047,66.291 109.696,69.696 110.344,73.101 110.993,76.506 111.642,79.911 112.291,83.316" fill="none" stroke="#8a8984" stroke-width="0.25"/><polyline points="112.291,83.316 112.294,83.334 112.298,83.351 112.301,83.368 112.304,83.386 112.308,83.403 112.311,83.420 112.314,83.438 112.317,83.455 112.321,83.472 112.324,83.490 112.327,83.507 112.331,83.524 112.334,83.542 112.337,83.559 112.341,83.576 112.344,83.594 112.347,83.611 112.350,83.628 112.354,83.646 112.357,83.663 112.360,83.680 112.364,83.698 112.367,83.715" fill="none" stroke="#8a8984" stroke-width="0.25"/><polyline points="112.367,83.715 109.170,83.715 105.973,83.715 102.776,83.715 99.579,83.715 96.382,83.715 93.186,83.715 89.989,83.715 86.792,83.715 83.595,83.715 80.398,83.715 77.201,83.715 74.004,83.715 70.807,83.715 67.610,83.715 64.413,83.715 61.216,83.715 58.020,83.715 54.823,83.715 51.626,83.715 48.429,83.715 45.232,83.715 42.035,83.715 38.838,83.715" fill="none" stroke="#8a8984" stroke-width="0.25"/><text x="1" y="89.7" font-size="3" font-family="sans-serif">right_btorso.6 = 8.34 cm, skirt_back.2 = 9.24 cm</text></svg>