<svg xmlns="http://www.w3.org/2000/svg" viewBox="0 0 59.31 90.40" width="237" height="362"><rect width="100%" height="100%" fill="white"/><polyline points="5.000,54.468 5.573,54.468 6.145,54.468 6.718,54.468 7.291,54.468 7.863,54.468 8.436,54.468 9.009,54.468 9.581,54.468 10.154,54.468 10.727,54.468 11.299,54.468 11.872,54.468 12.445,54.468 13.017,54.468 13.590,54.468 14.163,54.468 14.735,54.468 15.308,54.468 15.881,54.468 16.453,54.468 17.026,54.468 17.599,54.468 18.171,54.468" fill="none" stroke="#8a8984" stroke-width="0.25"/><polyline points="18.171,54.468 18.171,54.489 18.171,54.510 18.171,54.531 18.171,54.553 18.171,54.574 18.171,54.595 18.171,54.616 18.171,54.637 18.171,54.658 18.171,54.680 18.170,54.701 18.170,54.722 18.170,54.743 18.170,54.764 18.169,54.786 18.169,54.807 18.169,54.828 18.169,54.850 18.168,54.871 18.168,54.893 18.168,54.914 18.167,54.935 18.167,54.957" fill="none" stroke="#d62f2f" stroke-width="0.6"/><polyline points="18.167,54.957 18.125,56.099 18.032,57.173 17.892,58.183 17.707,59.137 17.481,60.041 17.217,60.902 16.919,61.724 16.588,62.516 16.229,63.284 15.845,64.033 15.439,64.771 15.014,65.503 14.573,66.236 14.119,66.976 13.657,67.730 13.188,68.504 12.716,69.305 12.244,70.139 11.776,71.012 11.314,71.930 10.862,72.901 10.423,73.930 10.000,75.024" fill="none" stroke="#8a8984" stroke-width="0.25"/><polyline points="10.000,75.024 9.783,75.475 9.565,75.927 9.348,76.378 9.130,76.829 8.913,77.280 8.696,77.732 8.478,78.183 8.261,78.634 8.043,79.086 7.826,79.537 7.609,79.988 7.391,80.439 7.174,80.891 6.957,81.342 6.739,81.793 6.522,82.244 6.304,82.696 6.087,83.147 5.870,83.598 5.652,84.050 5.435,84.501 5.217,84.952 5.000,85.403" fill="none" stroke="#8a8984" stroke-width="0.25"/><polyline points="5.000,85.403 5.000,84.058 5.000,82.713 5.000,81.368 5.000,80.023 5.000,78.678 5.000,77.333 5.000,75.988 5.000,74.643 5.000,73.298 5.000,71.953 5.000,70.608 5.000,69.263 5.000,67.918 5.000,66.573 5.000,65.228 5.000,63.883 5.000,62.538 5.000,61.193 5.000,59.848 5.000,58.503 5.000,57.158 5.000,55.813 5.000,54.468" fill="none" stroke="#8a8984" stroke-width="0.25"/><polyline points="54.313,54.468 54.313,54.347 54.313,54.226 54.313,54.104 54.313,53.983 54.313,53.861 54.313,53.740 54.313,53.618 54.313,53.497 54.313,53.376 54.313,53.254 54.313,53.133 54.313,53.011 54.313,52.890 54.313,52.769 54.313,52.647 54.313,52.526 54.313,52.404 54.313,52.283 54.313,52.161 54.313,52.040 54.313,51.919 54.313,51.797 54.313,51.676" fill="none" stroke="#8a8984" stroke-width="0.25"/><polyline points="54.313,51.676 53.843,49.646 53.372,47.617 52.902,45.588 52.432,43.558 51.961,41.529 51.491,39.500 51.020,37.470 50.550,35.441 50.080,33.411 49.609,31.382 49.139,29.353 48.669,27.323 48.198,25.294 47.728,23.264 47.257,21.235 46.787,19.206 46.317,17.176 45.846,15.147 45.376,13.118 44.906,11.088 44.435,9.059 43.965,7.029 43.494,5.000" fill="none" stroke="#8a8984" stroke-width="0.25"/><polyline points="43.494,5.000 43.216,5.111 42.937,5.222 42.658,5.332 42.380,5.443 42.101,5.554 41.822,5.665 41.544,5.775 41.265,5.886 40.986,5.997 40.708,6.108 40.429,6.219 40.150,6.329 39.872,6.440 39.593,6.551 39.314,6.662 39.036,6.772 38.757,6.883 38.478,6.994 38.199,7.105 37.921,7.215 37.642,7.326 37.363,7.437 37.085,7.548" fill="none" stroke="#8a8984" stroke-width="0.25"/><polyline points="37.085,7.548 37.083,7.569 37.082,7.590 37.080,7.611 37.079,7.632 37.077,7.653 37.076,7.674 37.075,7.695 37.073,7.716 37.072,7.737 37.070,7.758 37.069,7.779 37.067,7.800 37.066,7.821 37.064,7.842 37.063,7.863 37.061,7.884 37.060,7.905 37.059,7.926 37.057,7.947 37.056,7.968 37.054,7.988 37.053,8.009 37.051,8.030" fill="none" stroke="#d62f2f" stroke-width="0.6"/><polyline points="37.051,8.030 36.959,9.406 36.870,10.734 36.781,12.015 36.686,13.246 36.582,14.428 36.465,15.559 36.329,16.637 36.171,17.663 35.986,18.634 35.771,19.551 35.520,20.411 35.229,21.215 34.894,21.960 34.511,22.646 34.075,23.272 33.582,23.836 33.028,24.339 32.408,24.778 31.718,25.153 30.954,25.462 30.111,25.706 29.185,25.882 28.171,25.989" fill="none" stroke="#8a8984" stroke-width="0.25"/><polyline points="28.171,25.989 28.171,27.227 28.171,28.466 28.171,29.704 28.171,30.942 28.171,32.180 28.171,33.419 28.171,34.657 28.171,35.895 28.171,37.133 28.171,38.371 28.171,39.610 28.171,40.848 28.171,42.086 28.171,43.324 28.171,44.563 28.171,45.801 28.171,47.039 28.171,48.277 28.171,49.515 28.171,50.754 28.171,51.992 28.171,53.230 28.171,54.468" fill="none" stroke="#8a8984" stroke-width="0.25"/><polyline points="28.171,54.468 29.308,54.468 30.445,54.468 31.581,54.468 32.718,54.468 33.854,54.468 34.991,54.468 36.128,54.468 37.264,54.468 38.401,54.468 39.537,54.468 40.674,54.468 41.811,54.468 42.947,54.468 44.084,54.468 45.220,54.468 46.357,54.468 47.494,54.468 48.630,54.468 49.767,54.468 50.903,54.468 52.040,54.468 53.177,54.468 54.313,54.468" fill="none" stroke="#8a8984" stroke-width="0.25"/><text x="1" y="89.4" font-size="3" font-family="sans-serif">right_sleeve_b.1 = 0.49 cm, right_ftorso.3 = 0.48 cm</text></svg>