<svg xmlns="http://www.w3.org/2000/svg" viewBox="0 0 37.25 60.32" width="149" height="241"><rect width="100%" height="100%" fill="white"/><polyline points="5.000,55.321 6.092,55.321 7.184,55.321 8.276,55.321 9.368,55.321 10.460,55.321 11.552,55.321 12.644,55.321 13.736,55.321 14.828,55.321 15.920,55.321 17.012,55.321 18.104,55.321 19.196,55.321 20.288,55.321 21.380,55.321 22.472,55.321 23.564,55.321 24.655,55.321 25.747,55.321 26.839,55.321 27.931,55.321 29.023,55.321 30.115,55.321" fill="none" stroke="#8a8984" stroke-width="0.25"/><polyline points="30.115,55.321 30.208,54.051 30.301,52.781 30.394,51.511 30.487,50.241 30.580,48.971 30.672,47.702 30.765,46.432 30.858,45.162 30.951,43.892 31.044,42.622 31.137,41.352 31.229,40.082 31.322,38.812 31.415,37.542 31.508,36.273 31.601,35.003 31.694,33.733 31.786,32.463 31.879,31.193 31.972,29.923 32.065,28.653 32.158,27.383 32.251,26.113" fill="none" stroke="#8a8984" stroke-width="0.25"/><polyline points="32.251,26.113 31.218,26.040 30.272,25.894 29.407,25.677 28.620,25.389 27.906,25.034 27.261,24.610 26.680,24.120 26.159,23.565 25.694,22.946 25.280,22.265 24.913,21.521 24.589,20.717 24.304,19.854 24.052,18.933 23.830,17.954 23.633,16.920 23.457,15.832 23.298,14.690 23.151,13.496 23.012,12.251 22.876,10.956 22.739,9.613 22.598,8.222" fill="none" stroke="#8a8984" stroke-width="0.25"/><polyline points="22.598,8.222 22.595,8.198 22.593,8.175 22.590,8.151 22.588,8.127 22.585,8.103 22.583,8.079 22.581,8.055 22.578,8.032 22.576,8.008 22.573,7.984 22.571,7.960 22.568,7.936 22.566,7.912 22.563,7.888 22.561,7.864 22.558,7.840 22.556,7.816 22.553,7.792 22.551,7.768 22.548,7.744 22.546,7.720 22.543,7.696 22.541,7.672" fill="none" stroke="#8a8984" stroke-width="0.25"/><polyline points="22.541,7.672 22.248,7.556 21.956,7.440 21.664,7.323 21.372,7.207 21.079,7.091 20.787,6.975 20.495,6.859 20.203,6.743 19.910,6.626 19.618,6.510 19.326,6.394 19.034,6.278 18.741,6.162 18.449,6.046 18.157,5.929 17.865,5.813 17.572,5.697 17.280,5.581 16.988,5.465 16.696,5.349 16.403,5.232 16.111,5.116 15.819,5.000" fill="none" stroke="#d62f2f" stroke-width="0.6"/><polyline points="15.819,5.000 17.375,6.268 18.784,7.698 20.028,9.274 21.093,10.975 21.967,12.783 22.638,14.674 23.099,16.628 23.344,18.621 23.370,20.628 23.177,22.626 22.768,24.591 22.147,26.500 21.322,28.330 20.302,30.059 19.099,31.667 17.728,33.133 16.206,34.442 14.550,35.577 12.781,36.524 10.918,37.273 8.985,37.815 7.004,38.142 5.000,38.252" fill="none" stroke="#d62f2f" stroke-width="0.6"/><polyline points="5.000,38.252 5.000,38.994 5.000,39.736 5.000,40.478 5.000,41.220 5.000,41.962 5.000,42.705 5.000,43.447 5.000,44.189 5.000,44.931 5.000,45.673 5.000,46.415 5.000,47.157 5.000,47.899 5.000,48.642 5.000,49.384 5.000,50.126 5.000,50.868 5.000,51.610 5.000,52.352 5.000,53.094 5.000,53.837 5.000,54.579 5.000,55.321" fill="none" stroke="#8a8984" stroke-width="0.25"/><circle cx="15.819" cy="5.000" r="2.5" fill="none" stroke="#d62f2f" stroke-width="0.4"/><text x="1" y="59.3" font-size="3" font-family="sans-serif">left_ftorso: el vertice 5 forma 14.4 grados, por debajo de 15.0</text></svg>