<svg xmlns="http://www.w3.org/2000/svg" viewBox="0 0 201.66 170.09" width="807" height="680"><rect width="100%" height="100%" fill="white"/><polyline points="94.064,63.393 93.808,63.687 93.566,63.991 93.337,64.306 93.121,64.629 92.919,64.962 92.732,65.303 92.559,65.651 92.401,66.007 92.259,66.369 92.132,66.737 92.021,67.110 91.926,67.487 91.847,67.868 91.784,68.252 91.738,68.638 91.708,69.026 91.694,69.415 91.698,69.804 91.717,70.192 91.754,70.579 91.807,70.965 91.876,71.348 91.961,71.727" fill="none" stroke="#8a8984" stroke-width="0.25"/><polyline points="91.961,71.727 92.015,71.933 92.073,72.138 92.136,72.341 92.204,72.542 92.276,72.742 92.353,72.941 92.435,73.137 92.521,73.332 92.612,73.524 92.707,73.714 92.806,73.902 92.910,74.088 93.018,74.271 93.131,74.451 93.247,74.629 93.368,74.805 93.493,74.977 93.622,75.146 93.754,75.312 93.891,75.476 94.031,75.636 94.175,75.792 94.322,75.945" fill="none" stroke="#8a8984" stroke-width="0.25"/><polyline points="94.322,75.945 94.550,76.169 94.786,76.384 95.029,76.591 95.279,76.789 95.535,76.978 95.799,77.159 96.068,77.330 96.343,77.491 96.624,77.643 96.909,77.785 97.200,77.917 97.495,78.039 97.794,78.150 98.097,78.251 98.403,78.341 98.712,78.420 99.023,78.489 99.337,78.546 99.653,78.593 99.970,78.628 100.288,78.653 100.607,78.666 100.926,78.669" fill="none" stroke="#8a8984" stroke-width="0.25"/><polyline points="100.926,78.669 101.245,78.660 101.563,78.640 101.881,78.608 102.197,78.566 102.511,78.513 102.824,78.449 103.134,78.374 103.441,78.288 103.745,78.191 104.046,78.084 104.343,77.967 104.635,77.839 104.923,77.701 105.205,77.553 105.483,77.396 105.754,77.228 106.020,77.052 106.279,76.866 106.532,76.671 106.778,76.468 107.016,76.256 107.247,76.036 107.471,75.808" fill="none" stroke="#8a8984" stroke-width="0.25"/><polyline points="107.471,75.808 107.615,75.652 107.755,75.492 107.892,75.329 108.025,75.163 108.154,74.994 108.280,74.822 108.401,74.647 108.518,74.470 108.631,74.289 108.739,74.106 108.844,73.921 108.944,73.733 109.039,73.543 109.130,73.351 109.217,73.157 109.299,72.961 109.376,72.763 109.449,72.563 109.518,72.361 109.581,72.158 109.640,71.954 109.694,71.748 109.743,71.541" fill="none" stroke="#8a8984" stroke-width="0.25"/><polyline points="109.743,71.541 109.819,71.168 109.879,70.792 109.924,70.414 109.953,70.034 109.966,69.654 109.963,69.273 109.944,68.893 109.909,68.514 109.859,68.136 109.793,67.762 109.712,67.390 109.615,67.022 109.502,66.658 109.375,66.299 109.233,65.946 109.076,65.599 108.905,65.259 108.720,64.926 108.521,64.601 108.309,64.285 108.084,63.978 107.846,63.681 107.596,63.393" fill="none" stroke="#8a8984" stroke-width="0.25"/><polyline points="107.596,63.393 110.395,60.855 113.193,58.316 115.991,55.777 118.789,53.238 121.588,50.699 124.386,48.160 127.184,45.622 129.982,43.083 132.780,40.544 135.579,38.005 138.377,35.466 141.175,32.927 143.973,30.388 146.772,27.850 149.570,25.311 152.368,22.772 155.166,20.233 157.964,17.694 160.763,15.155 163.561,12.617 166.359,10.078 169.157,7.539 171.956,5.000" fill="none" stroke="#8a8984" stroke-width="0.25"/><polyline points="171.956,5.000 183.391,20.472 191.513,37.912 195.996,56.622 196.660,75.849 193.478,94.823 186.578,112.782 176.237,129.006 162.870,142.843 147.013,153.737 129.303,161.253 110.450,165.088 91.211,165.088 72.358,161.253 54.647,153.737 38.790,142.843 25.423,129.006 15.082,112.782 8.182,94.823 5.000,75.849 5.664,56.622 10.147,37.912 18.269,20.472 29.705,5.000" fill="none" stroke="#8a8984" stroke-width="0.25"/><polyline points="29.705,5.000 32.503,7.539 35.301,10.078 38.099,12.617 40.897,15.155 43.696,17.694 46.494,20.233 49.292,22.772 52.090,25.311 54.889,27.850 57.687,30.388 60.485,32.927 63.283,35.466 66.081,38.005 68.880,40.544 71.678,43.083 74.476,45.622 77.274,48.160 80.073,50.699 82.871,53.238 85.669,55.777 88.467,58.316 91.265,60.855 94.064,63.393" fill="none" stroke="#8a8984" stroke-width="0.25"/><text x="1" y="169.1" font-size="3" font-family="sans-serif">skirt_back: el panel mide 191 x 158 cm y no cabe en un rollo de 150.0 cm ni girandolo</text></svg>