<svg xmlns="http://www.w3.org/2000/svg" viewBox="0 0 212.68 166.04" width="851" height="664"><rect width="100%" height="100%" fill="white"/><polyline points="28.341,9.570 20.316,24.918 15.278,41.488 13.401,58.705 14.752,75.972 19.281,92.688 26.834,108.274 37.146,122.188 49.861,133.948 64.537,143.144 80.664,149.459 97.683,152.672 115.002,152.672 132.021,149.459 148.148,143.144 162.823,133.948 175.538,122.188 185.851,108.274 193.403,92.688 197.933,75.972 199.283,58.705 197.407,41.488 192.369,24.918 184.344,9.570" fill="none" stroke="#8a8984" stroke-width="0.25"/><polyline points="184.344,9.570 184.651,9.371 184.957,9.173 185.264,8.974 185.570,8.775 185.877,8.576 186.183,8.378 186.490,8.179 186.797,7.980 187.103,7.782 187.410,7.583 187.716,7.384 188.023,7.186 188.329,6.987 188.636,6.788 188.942,6.590 189.249,6.391 189.556,6.192 189.862,5.993 190.169,5.795 190.475,5.596 190.782,5.397 191.088,5.199 191.395,5.000" fill="none" stroke="#8a8984" stroke-width="0.25"/><polyline points="191.395,5.000 200.145,21.735 205.638,39.804 207.685,58.577 206.212,77.405 201.273,95.632 193.038,112.627 181.793,127.799 167.929,140.621 151.927,150.649 134.342,157.534 115.785,161.038 96.900,161.038 78.343,157.534 60.758,150.649 44.756,140.621 30.891,127.799 19.646,112.627 11.411,95.632 6.472,77.405 5.000,58.577 7.046,39.804 12.540,21.735 21.290,5.000" fill="none" stroke="#8a8984" stroke-width="0.25"/><polyline points="21.290,5.000 21.596,5.199 21.903,5.397 22.209,5.596 22.516,5.795 22.822,5.993 23.129,6.192 23.436,6.391 23.742,6.590 24.049,6.788 24.355,6.987 24.662,7.186 24.968,7.384 25.275,7.583 25.582,7.782 25.888,7.980 26.195,8.179 26.501,8.378 26.808,8.576 27.114,8.775 27.421,8.974 27.728,9.173 28.034,9.371 28.341,9.570" fill="none" stroke="#8a8984" stroke-width="0.25"/><text x="1" y="165.0" font-size="3" font-family="sans-serif">skirt_back_3: el panel mide 199 x 155 cm y no cabe en un rollo de 150.0 cm ni girandolo</text></svg>